<svg xmlns="http://www.w3.org/2000/svg" viewBox="0 0 1024 1024"><defs>
<linearGradient id="bez" x1="0" y1="0" x2="0" y2="1">
 <stop offset="0" stop-color="#262B31"/><stop offset="1" stop-color="#14171B"/>
</linearGradient>
<filter id="g2" x="-60%" y="-60%" width="220%" height="220%"><feGaussianBlur stdDeviation="10"/></filter>
</defs><rect width="1024" height="1024" rx="200" fill="url(#bez)"/><rect x="10" y="10" width="1004" height="1004" rx="192" fill="none" stroke="#3C434C" stroke-width="6"/><rect x="26" y="26" width="972" height="972" rx="180" fill="none" stroke="#0A0C0E" stroke-width="8"/><circle cx="880" cy="134" r="20" fill="#FF4040"/><circle cx="880" cy="134" r="20" fill="#FF4040" opacity="0.5" filter="url(#g2)"/><text x="824" y="152" font-family="DejaVu Sans Mono" font-weight="bold" font-size="44" fill="#4A525C" text-anchor="end">TX</text><rect x="92" y="208" width="840" height="386" rx="26" fill="#0B0D07" stroke="#000000" stroke-width="10"/><rect x="92" y="208" width="840" height="386" rx="26" fill="#FFB300" opacity="0.05"/><g transform="skewX(-3)"><polygon points="157.0,291.0 172.0,276.0 204.0,276.0 219.0,291.0 204.0,306.0 172.0,306.0" fill="#251B07" /><polygon points="157.0,401.0 172.0,386.0 204.0,386.0 219.0,401.0 204.0,416.0 172.0,416.0" fill="#251B07" /><polygon points="157.0,511.0 172.0,496.0 204.0,496.0 219.0,511.0 204.0,526.0 172.0,526.0" fill="#251B07" /><polygon points="153.0,295.0 168.0,310.0 168.0,382.0 153.0,397.0 138.0,382.0 138.0,310.0" fill="#251B07" /><polygon points="223.0,295.0 238.0,310.0 238.0,382.0 223.0,397.0 208.0,382.0 208.0,310.0" fill="#251B07" /><polygon points="153.0,405.0 168.0,420.0 168.0,492.0 153.0,507.0 138.0,492.0 138.0,420.0" fill="#251B07" /><polygon points="223.0,405.0 238.0,420.0 238.0,492.0 223.0,507.0 208.0,492.0 208.0,420.0" fill="#251B07" /><polygon points="223.0,295.0 238.0,310.0 238.0,382.0 223.0,397.0 208.0,382.0 208.0,310.0" fill="#FFB300" opacity="0.55" filter="url(#g2)"/><polygon points="223.0,295.0 238.0,310.0 238.0,382.0 223.0,397.0 208.0,382.0 208.0,310.0" fill="#FFB300" /><polygon points="223.0,405.0 238.0,420.0 238.0,492.0 223.0,507.0 208.0,492.0 208.0,420.0" fill="#FFB300" opacity="0.55" filter="url(#g2)"/><polygon points="223.0,405.0 238.0,420.0 238.0,492.0 223.0,507.0 208.0,492.0 208.0,420.0" fill="#FFB300" /><polygon points="283.0,291.0 298.0,276.0 330.0,276.0 345.0,291.0 330.0,306.0 298.0,306.0" fill="#251B07" /><polygon points="283.0,401.0 298.0,386.0 330.0,386.0 345.0,401.0 330.0,416.0 298.0,416.0" fill="#251B07" /><polygon points="283.0,511.0 298.0,496.0 330.0,496.0 345.0,511.0 330.0,526.0 298.0,526.0" fill="#251B07" /><polygon points="279.0,295.0 294.0,310.0 294.0,382.0 279.0,397.0 264.0,382.0 264.0,310.0" fill="#251B07" /><polygon points="349.0,295.0 364.0,310.0 364.0,382.0 349.0,397.0 334.0,382.0 334.0,310.0" fill="#251B07" /><polygon points="279.0,405.0 294.0,420.0 294.0,492.0 279.0,507.0 264.0,492.0 264.0,420.0" fill="#251B07" /><polygon points="349.0,405.0 364.0,420.0 364.0,492.0 349.0,507.0 334.0,492.0 334.0,420.0" fill="#251B07" /><polygon points="283.0,401.0 298.0,386.0 330.0,386.0 345.0,401.0 330.0,416.0 298.0,416.0" fill="#FFB300" opacity="0.55" filter="url(#g2)"/><polygon points="283.0,401.0 298.0,386.0 330.0,386.0 345.0,401.0 330.0,416.0 298.0,416.0" fill="#FFB300" /><polygon points="279.0,295.0 294.0,310.0 294.0,382.0 279.0,397.0 264.0,382.0 264.0,310.0" fill="#FFB300" opacity="0.55" filter="url(#g2)"/><polygon points="279.0,295.0 294.0,310.0 294.0,382.0 279.0,397.0 264.0,382.0 264.0,310.0" fill="#FFB300" /><polygon points="349.0,295.0 364.0,310.0 364.0,382.0 349.0,397.0 334.0,382.0 334.0,310.0" fill="#FFB300" opacity="0.55" filter="url(#g2)"/><polygon points="349.0,295.0 364.0,310.0 364.0,382.0 349.0,397.0 334.0,382.0 334.0,310.0" fill="#FFB300" /><polygon points="349.0,405.0 364.0,420.0 364.0,492.0 349.0,507.0 334.0,492.0 334.0,420.0" fill="#FFB300" opacity="0.55" filter="url(#g2)"/><polygon points="349.0,405.0 364.0,420.0 364.0,492.0 349.0,507.0 334.0,492.0 334.0,420.0" fill="#FFB300" /><circle cx="388.0" cy="512.0" r="16" fill="#FFB300"/><circle cx="388.0" cy="512.0" r="16" fill="#FFB300" opacity="0.55" filter="url(#g2)"/><polygon points="453.0,291.0 468.0,276.0 500.0,276.0 515.0,291.0 500.0,306.0 468.0,306.0" fill="#251B07" /><polygon points="453.0,401.0 468.0,386.0 500.0,386.0 515.0,401.0 500.0,416.0 468.0,416.0" fill="#251B07" /><polygon points="453.0,511.0 468.0,496.0 500.0,496.0 515.0,511.0 500.0,526.0 468.0,526.0" fill="#251B07" /><polygon points="449.0,295.0 464.0,310.0 464.0,382.0 449.0,397.0 434.0,382.0 434.0,310.0" fill="#251B07" /><polygon points="519.0,295.0 534.0,310.0 534.0,382.0 519.0,397.0 504.0,382.0 504.0,310.0" fill="#251B07" /><polygon points="449.0,405.0 464.0,420.0 464.0,492.0 449.0,507.0 434.0,492.0 434.0,420.0" fill="#251B07" /><polygon points="519.0,405.0 534.0,420.0 534.0,492.0 519.0,507.0 504.0,492.0 504.0,420.0" fill="#251B07" /><polygon points="453.0,291.0 468.0,276.0 500.0,276.0 515.0,291.0 500.0,306.0 468.0,306.0" fill="#FFB300" opacity="0.55" filter="url(#g2)"/><polygon points="453.0,291.0 468.0,276.0 500.0,276.0 515.0,291.0 500.0,306.0 468.0,306.0" fill="#FFB300" /><polygon points="453.0,511.0 468.0,496.0 500.0,496.0 515.0,511.0 500.0,526.0 468.0,526.0" fill="#FFB300" opacity="0.55" filter="url(#g2)"/><polygon points="453.0,511.0 468.0,496.0 500.0,496.0 515.0,511.0 500.0,526.0 468.0,526.0" fill="#FFB300" /><polygon points="449.0,295.0 464.0,310.0 464.0,382.0 449.0,397.0 434.0,382.0 434.0,310.0" fill="#FFB300" opacity="0.55" filter="url(#g2)"/><polygon points="449.0,295.0 464.0,310.0 464.0,382.0 449.0,397.0 434.0,382.0 434.0,310.0" fill="#FFB300" /><polygon points="519.0,295.0 534.0,310.0 534.0,382.0 519.0,397.0 504.0,382.0 504.0,310.0" fill="#FFB300" opacity="0.55" filter="url(#g2)"/><polygon points="519.0,295.0 534.0,310.0 534.0,382.0 519.0,397.0 504.0,382.0 504.0,310.0" fill="#FFB300" /><polygon points="449.0,405.0 464.0,420.0 464.0,492.0 449.0,507.0 434.0,492.0 434.0,420.0" fill="#FFB300" opacity="0.55" filter="url(#g2)"/><polygon points="449.0,405.0 464.0,420.0 464.0,492.0 449.0,507.0 434.0,492.0 434.0,420.0" fill="#FFB300" /><polygon points="519.0,405.0 534.0,420.0 534.0,492.0 519.0,507.0 504.0,492.0 504.0,420.0" fill="#FFB300" opacity="0.55" filter="url(#g2)"/><polygon points="519.0,405.0 534.0,420.0 534.0,492.0 519.0,507.0 504.0,492.0 504.0,420.0" fill="#FFB300" /><polygon points="579.0,291.0 594.0,276.0 626.0,276.0 641.0,291.0 626.0,306.0 594.0,306.0" fill="#251B07" /><polygon points="579.0,401.0 594.0,386.0 626.0,386.0 641.0,401.0 626.0,416.0 594.0,416.0" fill="#251B07" /><polygon points="579.0,511.0 594.0,496.0 626.0,496.0 641.0,511.0 626.0,526.0 594.0,526.0" fill="#251B07" /><polygon points="575.0,295.0 590.0,310.0 590.0,382.0 575.0,397.0 560.0,382.0 560.0,310.0" fill="#251B07" /><polygon points="645.0,295.0 660.0,310.0 660.0,382.0 645.0,397.0 630.0,382.0 630.0,310.0" fill="#251B07" /><polygon points="575.0,405.0 590.0,420.0 590.0,492.0 575.0,507.0 560.0,492.0 560.0,420.0" fill="#251B07" /><polygon points="645.0,405.0 660.0,420.0 660.0,492.0 645.0,507.0 630.0,492.0 630.0,420.0" fill="#251B07" /><polygon points="579.0,291.0 594.0,276.0 626.0,276.0 641.0,291.0 626.0,306.0 594.0,306.0" fill="#FFB300" opacity="0.55" filter="url(#g2)"/><polygon points="579.0,291.0 594.0,276.0 626.0,276.0 641.0,291.0 626.0,306.0 594.0,306.0" fill="#FFB300" /><polygon points="645.0,295.0 660.0,310.0 660.0,382.0 645.0,397.0 630.0,382.0 630.0,310.0" fill="#FFB300" opacity="0.55" filter="url(#g2)"/><polygon points="645.0,295.0 660.0,310.0 660.0,382.0 645.0,397.0 630.0,382.0 630.0,310.0" fill="#FFB300" /><polygon points="645.0,405.0 660.0,420.0 660.0,492.0 645.0,507.0 630.0,492.0 630.0,420.0" fill="#FFB300" opacity="0.55" filter="url(#g2)"/><polygon points="645.0,405.0 660.0,420.0 660.0,492.0 645.0,507.0 630.0,492.0 630.0,420.0" fill="#FFB300" /><polygon points="705.0,291.0 720.0,276.0 752.0,276.0 767.0,291.0 752.0,306.0 720.0,306.0" fill="#251B07" /><polygon points="705.0,401.0 720.0,386.0 752.0,386.0 767.0,401.0 752.0,416.0 720.0,416.0" fill="#251B07" /><polygon points="705.0,511.0 720.0,496.0 752.0,496.0 767.0,511.0 752.0,526.0 720.0,526.0" fill="#251B07" /><polygon points="701.0,295.0 716.0,310.0 716.0,382.0 701.0,397.0 686.0,382.0 686.0,310.0" fill="#251B07" /><polygon points="771.0,295.0 786.0,310.0 786.0,382.0 771.0,397.0 756.0,382.0 756.0,310.0" fill="#251B07" /><polygon points="701.0,405.0 716.0,420.0 716.0,492.0 701.0,507.0 686.0,492.0 686.0,420.0" fill="#251B07" /><polygon points="771.0,405.0 786.0,420.0 786.0,492.0 771.0,507.0 756.0,492.0 756.0,420.0" fill="#251B07" /><polygon points="705.0,401.0 720.0,386.0 752.0,386.0 767.0,401.0 752.0,416.0 720.0,416.0" fill="#FFB300" opacity="0.55" filter="url(#g2)"/><polygon points="705.0,401.0 720.0,386.0 752.0,386.0 767.0,401.0 752.0,416.0 720.0,416.0" fill="#FFB300" /><polygon points="701.0,295.0 716.0,310.0 716.0,382.0 701.0,397.0 686.0,382.0 686.0,310.0" fill="#FFB300" opacity="0.55" filter="url(#g2)"/><polygon points="701.0,295.0 716.0,310.0 716.0,382.0 701.0,397.0 686.0,382.0 686.0,310.0" fill="#FFB300" /><polygon points="771.0,295.0 786.0,310.0 786.0,382.0 771.0,397.0 756.0,382.0 756.0,310.0" fill="#FFB300" opacity="0.55" filter="url(#g2)"/><polygon points="771.0,295.0 786.0,310.0 786.0,382.0 771.0,397.0 756.0,382.0 756.0,310.0" fill="#FFB300" /><polygon points="771.0,405.0 786.0,420.0 786.0,492.0 771.0,507.0 756.0,492.0 756.0,420.0" fill="#FFB300" opacity="0.55" filter="url(#g2)"/><polygon points="771.0,405.0 786.0,420.0 786.0,492.0 771.0,507.0 756.0,492.0 756.0,420.0" fill="#FFB300" /><text x="820" y="522" font-family="DejaVu Sans Mono" font-weight="bold" font-size="64" fill="#FFB300">MHz</text><text x="820" y="328" font-family="DejaVu Sans Mono" font-weight="bold" font-size="52" fill="#43E06B">USB</text></g><rect x="110" y="700" width="56" height="96" rx="8" fill="#43E06B" opacity="1"/><rect x="110" y="700" width="56" height="96" rx="8" fill="#43E06B" opacity="0.45" filter="url(#g2)"/><text x="138.0" y="678" font-family="DejaVu Sans Mono" font-size="36" fill="#6B7480" text-anchor="middle">S1</text><rect x="178" y="700" width="56" height="96" rx="8" fill="#43E06B" opacity="1"/><rect x="178" y="700" width="56" height="96" rx="8" fill="#43E06B" opacity="0.45" filter="url(#g2)"/><rect x="246" y="700" width="56" height="96" rx="8" fill="#43E06B" opacity="1"/><rect x="246" y="700" width="56" height="96" rx="8" fill="#43E06B" opacity="0.45" filter="url(#g2)"/><text x="274.0" y="678" font-family="DejaVu Sans Mono" font-size="36" fill="#6B7480" text-anchor="middle">3</text><rect x="314" y="700" width="56" height="96" rx="8" fill="#43E06B" opacity="1"/><rect x="314" y="700" width="56" height="96" rx="8" fill="#43E06B" opacity="0.45" filter="url(#g2)"/><rect x="382" y="700" width="56" height="96" rx="8" fill="#43E06B" opacity="1"/><rect x="382" y="700" width="56" height="96" rx="8" fill="#43E06B" opacity="0.45" filter="url(#g2)"/><text x="410.0" y="678" font-family="DejaVu Sans Mono" font-size="36" fill="#6B7480" text-anchor="middle">5</text><rect x="450" y="700" width="56" height="96" rx="8" fill="#43E06B" opacity="1"/><rect x="450" y="700" width="56" height="96" rx="8" fill="#43E06B" opacity="0.45" filter="url(#g2)"/><rect x="518" y="700" width="56" height="96" rx="8" fill="#43E06B" opacity="1"/><rect x="518" y="700" width="56" height="96" rx="8" fill="#43E06B" opacity="0.45" filter="url(#g2)"/><text x="546.0" y="678" font-family="DejaVu Sans Mono" font-size="36" fill="#6B7480" text-anchor="middle">7</text><rect x="586" y="700" width="56" height="96" rx="8" fill="#43E06B" opacity="0.16"/><rect x="654" y="700" width="56" height="96" rx="8" fill="#43E06B" opacity="0.16"/><text x="682.0" y="678" font-family="DejaVu Sans Mono" font-size="36" fill="#6B7480" text-anchor="middle">9</text><rect x="722" y="700" width="56" height="96" rx="8" fill="#FF5340" opacity="0.16"/><rect x="790" y="700" width="56" height="96" rx="8" fill="#FF5340" opacity="0.16"/><text x="818.0" y="678" font-family="DejaVu Sans Mono" font-size="36" fill="#6B7480" text-anchor="middle">+20</text><rect x="858" y="700" width="56" height="96" rx="8" fill="#FF5340" opacity="0.16"/></svg>